<?xml version="1.0" encoding="utf-8"?>
<!-- Generator: Adobe Illustrator 18.1.1, SVG Export Plug-In . SVG Version: 6.00 Build 0)  -->
<svg version="1.1" id="Layer_1" xmlns="http://www.w3.org/2000/svg" xmlns:xlink="http://www.w3.org/1999/xlink" x="0px" y="0px"
	 viewBox="-499 501 24 24" enable-background="new -499 501 24 24" xml:space="preserve">
<path fill="#FFFFFF" d="M-487,510c-1.7,0-3,1.3-3,3s1.3,3,3,3s3-1.3,3-3S-485.3,510-487,510 M-487,518c-2.8,0-5-2.2-5-5s2.2-5,5-5
	s5,2.2,5,5S-484.2,518-487,518 M-487,505.5c-5,0-9.3,3.1-11,7.5c1.7,4.4,6,7.5,11,7.5s9.3-3.1,11-7.5
	C-477.7,508.6-482,505.5-487,505.5z"/>
</svg>
